<?xml version="1.0" encoding="UTF-8"?>
<svg width="210px" height="210px" viewBox="0 0 210 210" version="1.1" xmlns="http://www.w3.org/2000/svg" xmlns:xlink="http://www.w3.org/1999/xlink">
    <!-- Generator: Sketch 62 (91390) - https://sketch.com -->
    <title>tdb-logo</title>
    <desc>Created with Sketch.</desc>
    <g id="Page-1" stroke="none" stroke-width="1" fill="none" fill-rule="evenodd">
        <g id="TourDuBencec" transform="translate(-119.000000, -230.000000)">
            <g id="tdb-logo" transform="translate(119.000000, 229.000000)">
                <g id="Group-3" transform="translate(0.000000, 0.582167)" fill="#E2E2E2">
                    <path d="M203.568517,114.607267 L187.84885,112.007933 C187.592183,111.9636 187.329683,111.9601 187.070683,111.992767 L151.503683,116.4856 L113.233517,107.2351 C113.227683,107.233933 113.224183,107.233933 113.21835,107.232767 C113.205517,107.229267 113.192683,107.229267 113.17985,107.226933 C113.01185,107.1896 112.838017,107.170933 112.66185,107.166267 C112.64085,107.166267 112.61985,107.159267 112.59885,107.159267 L96.47785,107.159267 C96.2771833,107.159267 96.0800167,107.183767 95.8875167,107.226933 L95.88635,107.2246 L37.67785,120.298267 L5.94335,115.4776 C5.66218333,112.738267 5.46735,109.9756 5.41601667,107.1791 C5.40435,106.5491 5.39851667,105.920267 5.39851667,105.293767 C5.39851667,77.8607667 16.50985,53.0504333 34.48585,35.0697667 C52.46535,17.0949333 77.2756833,5.98476667 104.707517,5.9836 C105.335183,5.9836 105.964017,5.98826667 106.59285,6.0011 C159.668017,6.97176667 203.02835,50.3332667 204.000183,103.4061 C204.01185,104.0361 204.017683,104.6661 204.017683,105.2926 C204.017683,108.4356 203.85435,111.538933 203.568517,114.607267 M174.93035,175.514267 C173.47785,176.966767 171.964683,178.357433 170.424683,179.717767 L119.478683,114.2981 L150.71735,121.849933 C151.034683,121.925767 151.366017,121.943267 151.689183,121.904767 L187.356517,117.3991 L202.929183,119.973933 C199.737183,141.5211 189.636183,160.804933 174.93035,175.514267 M104.708683,204.6016 C104.07985,204.6016 103.451017,204.595767 102.821017,204.5841 C80.0010167,204.1676 58.9905167,195.8971 42.3585167,182.403433 L97.7821833,112.557433 L111.280517,112.557433 L166.279517,183.179267 C149.350017,196.581933 127.98135,204.600433 104.708683,204.6016 M6.66901667,121.048433 L37.3675167,125.7116 L38.3650167,125.6766 L89.6131833,114.166267 L38.2495167,178.8976 C21.81585,164.034267 10.3346833,143.791433 6.66901667,121.048433 M209.39835,103.305767 C208.347183,47.3011 162.700183,1.6541 106.69435,0.602933333 C106.030517,0.5901 105.369017,0.585433333 104.707517,0.585433333 C46.8781833,0.585433333 0.00035,47.4632667 0.00035,105.293767 C0.00035,105.9541 0.00618333333,106.6156 0.01785,107.279433 C1.06901667,163.285267 46.7160167,208.932267 102.72185,209.982267 C103.385683,209.993933 104.04835,210.000933 104.708683,210.000933 C162.538017,209.9986 209.41585,163.121933 209.41585,105.2926 C209.41585,104.6311 209.410017,103.9696 209.39835,103.305767" id="Fill-1"></path>
                </g>
                <path d="M111.285067,113.139833 L166.281733,183.758167 C149.3534,197.164333 127.980067,205.179333 104.705067,205.179333 C104.075067,205.179333 103.445067,205.179333 102.815067,205.1665 C80.0067333,204.747667 58.9950667,196.476 42.3584,182.988167 L97.7867333,113.139833 L111.285067,113.139833 Z" id="Fill-4" fill="#B3419A"></path>
                <path d="M203.999717,103.988733 C203.027883,50.9159 159.66755,7.5544 106.59355,6.58373333 C105.96355,6.5709 105.334717,6.56506667 104.70705,6.56506667 C77.2752167,6.56623333 52.4648833,17.6775667 34.4853833,35.6524 C16.5093833,53.6330667 5.39921667,78.4434 5.39921667,105.875233 C5.39921667,106.501733 5.40388333,107.130567 5.41671667,107.760567 C5.46805,110.558233 5.66171667,113.3209 5.94405,116.060233 L37.6773833,120.8809 L95.88705,107.806067 L95.8882167,107.8084 C96.07955,107.765233 96.2778833,107.7419 96.4773833,107.7419 L112.59955,107.7419 C112.62055,107.7419 112.640383,107.7489 112.661383,107.7489 C112.83405,107.753567 113.007883,107.7699 113.18055,107.8084 C113.193383,107.810733 113.206217,107.810733 113.217883,107.814233 C113.223717,107.8154 113.228383,107.8154 113.23305,107.816567 L151.503217,117.068233 L187.070217,112.574233 C187.329217,112.542733 187.592883,112.546233 187.84955,112.590567 L203.56805,115.1899 C203.853883,112.121567 204.017217,109.018233 204.017217,105.874067 C204.017217,105.247567 204.011383,104.618733 203.999717,103.988733" id="Fill-6" fill="#070122"></path>
                <path d="M37.3681,126.2933 L6.66843333,121.630133 C10.3352667,144.373133 21.8152667,164.617133 38.2489333,179.480467 L89.6137667,114.747967 L38.3644333,126.259467 L37.3681,126.2933 Z" id="Fill-8" fill="#70639E"></path>
                <path d="M187.3571,117.9808 L151.689767,122.486467 C151.365433,122.526133 151.035267,122.508633 150.716767,122.431633 L119.4781,114.880967 L170.425267,180.299467 C171.965267,178.939133 173.478433,177.549633 174.930933,176.095967 C189.636767,161.386633 199.7366,142.103967 202.929767,120.555633 L187.3571,117.9808 Z" id="Fill-10" fill="#70639E"></path>
                <path d="M112.661967,107.74855 C112.838133,107.753217 113.011967,107.771883 113.179967,107.809217 C113.0073,107.770717 112.834633,107.753217 112.661967,107.74855" id="Fill-12" fill="#040201"></path>
                <polygon id="Fill-14" fill="#E2E2E2" points="106.753967 117.080717 102.662467 117.080717 102.3953 122.037883 107.021133 122.037883"></polygon>
                <polygon id="Fill-16" fill="#E2E2E2" points="107.323067 127.653633 102.0929 127.653633 101.660067 135.6943 107.7559 135.6943"></polygon>
                <polygon id="Fill-18" fill="#E2E2E2" points="108.182667 143.619 101.234 143.619 100.608667 155.227333 108.808 155.227333"></polygon>
                <path d="M123.2679,161.40495 L86.1480667,161.40495 C84.7060667,161.40495 83.5382333,162.572783 83.5382333,164.014783 L83.5382333,184.22145 C83.5382333,185.202617 84.0889,186.102117 84.9639,186.547783 L103.5244,195.990783 C103.896567,196.179783 104.302567,196.274283 104.708567,196.274283 C105.1134,196.274283 105.520567,196.179783 105.891567,195.990783 L124.452067,186.547783 C125.327067,186.102117 125.877733,185.202617 125.877733,184.22145 L125.877733,164.014783 C125.877733,162.572783 124.7099,161.40495 123.2679,161.40495" id="Fill-20" fill="#070122"></path>
                <polygon id="Fill-22" fill="#FF2445" points="104.708333 54.1706667 99.0651667 68.8321667 83.3758333 69.6686667 95.5768333 79.5678333 91.5238333 94.745 104.708333 86.2003333 117.891667 94.745 113.838667 79.5678333 126.039667 69.6686667 110.350333 68.8321667"></polygon>
                <path d="M125.878083,164.015133 L125.878083,184.220633 C125.878083,185.202967 125.327417,186.102467 124.45125,186.546967 L105.891917,195.989967 C105.51975,196.178967 105.11375,196.273467 104.70775,196.273467 C104.30175,196.273467 103.896917,196.178967 103.52475,195.989967 L84.96425,186.546967 C84.08925,186.102467 83.5374167,185.202967 83.5374167,184.220633 L83.5374167,164.015133 C83.5374167,162.573133 84.7064167,161.4053 86.1484167,161.4053 L123.26825,161.4053 C124.71025,161.4053 125.878083,162.573133 125.878083,164.015133 M81.67075,164.015133 L81.67075,184.220633 C81.67075,185.914633 82.60875,187.442967 84.1184167,188.210633 L102.67775,197.6548 C103.30425,197.972133 104.005417,198.1413 104.70775,198.1413 C105.410083,198.1413 106.112417,197.972133 106.73775,197.6548 L125.29825,188.210633 C126.80675,187.442967 127.74475,185.914633 127.74475,184.220633 L127.74475,164.015133 C127.74475,161.546467 125.736917,159.537467 123.26825,159.537467 L86.1484167,159.537467 C83.67975,159.537467 81.67075,161.546467 81.67075,164.015133" id="Fill-24" fill="#E2E2E2"></path>
                <path d="M94.5569333,177.0307 C95.0866,176.503367 95.7796,176.238533 96.6347667,176.238533 C97.4899333,176.238533 98.1736,176.506867 98.6869333,177.043533 C99.1991,177.5802 99.4557667,178.256867 99.4557667,179.073533 C99.4557667,179.941533 99.1956,180.640367 98.6741,181.166533 C98.1526,181.695033 97.4631,181.9587 96.6091,181.9587 C95.7364333,181.9587 95.0446,181.677533 94.5312667,181.116367 C94.0179333,180.5552 93.7624333,179.882033 93.7624333,179.098033 C93.7624333,178.247533 94.0272667,177.558033 94.5569333,177.0307 M91.5877667,183.797367 C92.2329333,184.358533 92.9854333,184.787867 93.8441,185.086533 C94.7016,185.384033 95.6232667,185.533367 96.6091,185.533367 C97.5774333,185.533367 98.4944333,185.384033 99.3612667,185.086533 C100.2281,184.787867 100.9841,184.358533 101.629267,183.797367 C102.2756,183.235033 102.785433,182.5467 103.159933,181.728867 C103.533267,180.911033 103.719933,179.992867 103.719933,178.970867 C103.719933,178.085367 103.558933,177.281533 103.235767,176.5582 C102.9126,175.834867 102.483267,175.213033 101.947767,174.693867 C101.412267,174.175867 100.7846,173.774533 100.062433,173.494533 C99.3402667,173.213367 98.5889333,173.0722 97.8072667,173.0722 C97.6031,173.0722 97.3814333,173.0897 97.1434333,173.123533 C96.9066,173.158533 96.7024333,173.209867 96.5321,173.276367 L96.6091,173.1492 L101.055267,166.970533 L95.8764333,166.970533 L91.5131,173.4817 C90.9181,174.383533 90.4339333,175.272533 90.0594333,176.149867 C89.6849333,177.026033 89.4982667,178.0002 89.4982667,179.073533 C89.4982667,180.060533 89.6849333,180.9542 90.0582667,181.754533 C90.4327667,182.5537 90.9426,183.235033 91.5877667,183.797367" id="Fill-26" fill="#E2E2E2"></path>
                <path d="M110.397,170.9148 C110.847333,170.413133 111.430667,170.161133 112.145833,170.161133 C112.827167,170.161133 113.372,170.3618 113.780333,170.7608 C114.188667,171.160967 114.392833,171.682467 114.392833,172.3288 C114.392833,172.872467 114.256333,173.365967 113.9845,173.806967 C113.7115,174.247967 113.3545,174.681967 112.912333,175.1078 L105.8645,181.480133 L105.8645,185.0478 L118.938167,185.0478 L118.938167,181.3203 L111.559,181.3203 L115.746167,177.5928 C116.1545,177.217133 116.55,176.839133 116.933833,176.456467 C117.3165,176.072633 117.657167,175.659633 117.954667,175.217467 C118.252167,174.7753 118.486667,174.293467 118.657,173.7743 C118.827333,173.2563 118.9125,172.672967 118.9125,172.025467 C118.9125,171.0898 118.729333,170.273133 118.363,169.575467 C117.996667,168.876633 117.507833,168.297967 116.895333,167.8383 C116.281667,167.378633 115.584,167.039133 114.801167,166.8163 C114.018333,166.5958 113.209833,166.484967 112.375667,166.484967 C111.490167,166.484967 110.6525,166.617967 109.8615,166.883967 C109.069333,167.1488 108.367,167.536133 107.7545,168.040133 C107.140833,168.546467 106.6345,169.1578 106.2355,169.8753 C105.834167,170.595133 105.5845,171.412967 105.481833,172.3323 L109.593167,172.893467 C109.677167,172.0768 109.9455,171.417633 110.397,170.9148" id="Fill-28" fill="#E2E2E2"></path>
                <path d="M117.891433,94.74535 L104.7081,86.2006833 L91.5236,94.74535 L95.5777667,79.5670167 L83.3767667,69.6690167 L99.0649333,68.8325167 L104.7081,54.1710167 L110.351267,68.8325167 L126.039433,69.6690167 L113.838433,79.5670167 L117.891433,94.74535 Z M111.985767,66.5831833 L104.7081,47.67385 L103.6196,50.5030167 L97.4304333,66.5831833 L77.1981,67.6611833 L92.9329333,80.42685 L87.7051,100.001183 L104.7081,88.98085 L121.709933,100.00235 L116.483267,80.42685 L132.2181,67.6611833 L111.985767,66.5831833 Z" id="Fill-30" fill="#E2E2E2"></path>
                <polygon id="Fill-32" fill="#E6E7E8" points="24.3405167 137.076917 28.1730167 137.076917 31.29385 142.142583 34.41585 137.076917 38.2471833 137.076917 38.2471833 150.161083 34.63985 150.161083 34.63985 142.646583 31.29385 147.76825 31.2191833 147.76825 27.89185 142.685083 27.89185 150.161083 24.3405167 150.161083"></polygon>
                <polygon id="Fill-34" fill="#E6E7E8" points="40.19645 137.076917 44.02895 137.076917 47.1497833 142.142583 50.2717833 137.076917 54.1031167 137.076917 54.1031167 150.161083 50.4957833 150.161083 50.4957833 142.646583 47.1497833 147.76825 47.0751167 147.76825 43.7477833 142.685083 43.7477833 150.161083 40.19645 150.161083"></polygon>
                <polygon id="Fill-36" fill="#E6E7E8" points="162.016867 143.506183 157.7177 137.076683 161.8862 137.076683 164.204367 140.75985 166.540033 137.076683 170.6152 137.076683 166.3172 143.470017 170.803033 150.16085 166.634533 150.16085 164.1297 146.21635 161.6062 150.16085 157.531033 150.16085"></polygon>
                <polygon id="Fill-38" fill="#E6E7E8" points="175.329817 143.506183 171.029483 137.076683 175.19915 137.076683 177.517317 140.75985 179.852983 137.076683 183.926983 137.076683 179.628983 143.470017 184.114817 150.16085 179.946317 150.16085 177.441483 146.21635 174.917983 150.16085 170.843983 150.16085"></polygon>
                <polygon id="Fill-40" fill="#E2E2E2" points="25.0696833 99.6878167 24.5575167 104.559817 20.6130167 104.143317 22.1121833 89.9029833 26.0555167 90.3183167 25.5421833 95.18915 37.83535 96.4829833 37.3616833 100.980483"></polygon>
                <path d="M34.9937,76.1675833 L34.9505333,76.1524167 C32.7315333,75.3555833 30.2220333,76.26325 29.3773667,78.6140833 C28.5397,80.94275 29.8685333,83.18275 32.0875333,83.9784167 L32.1318667,83.99475 C34.3508667,84.79275 36.8603667,83.88275 37.6968667,81.5540833 C38.5415333,79.2044167 37.2127,76.96675 34.9937,76.1675833 M30.6047,88.3814167 L30.5615333,88.36625 C26.1457,86.7795833 23.8438667,81.9344167 25.5483667,77.1895833 C27.2540333,72.44475 32.0537,70.20125 36.4683667,71.7879167 L36.5138667,71.8030833 C40.9273667,73.38975 43.2303667,78.2349167 41.5247,82.97975 C39.8202,87.7245833 35.0205333,89.96925 30.6047,88.3814167" id="Fill-42" fill="#E2E2E2"></path>
                <path d="M39.3789667,68.7962333 L31.8971333,63.4890667 L34.5559667,59.7370667 L41.9631333,64.9905667 C43.8858,66.3544 45.4876333,66.0312333 46.5411333,64.5460667 C47.5946333,63.0620667 47.4068,61.4695667 45.5413,60.1465667 L38.0408,54.8265667 L40.7008,51.0769 L48.0869667,56.3152333 C52.3896333,59.3660667 52.5331333,63.1589 49.8451333,66.9482333 C47.1583,70.7364 43.5486333,71.7525667 39.3789667,68.7962333" id="Fill-44" fill="#E2E2E2"></path>
                <path d="M55.9812167,47.4714333 C57.1548833,46.4751 57.34855,45.3317667 56.5797167,44.4252667 L56.5493833,44.3891 C55.7187167,43.4114333 54.5847167,43.5152667 53.4273833,44.4964333 L51.16755,46.4132667 L53.7027167,49.4022667 L55.9812167,47.4714333 Z M45.1813833,46.3502667 L51.0707167,41.3569333 C52.9747167,39.7411 54.6967167,39.1379333 56.2752167,39.2686 C57.6227167,39.3782667 58.7963833,40.0059333 59.83705,41.2332667 L59.8673833,41.2682667 C61.48205,43.1722667 61.5392167,45.2967667 60.5498833,47.2672667 L67.2033833,49.0896 L63.21805,52.4694333 L57.50955,50.8244333 L57.4733833,50.8547667 L55.9963833,52.1066 L59.1953833,55.8784333 L55.7432167,58.8067667 L45.1813833,46.3502667 Z" id="Fill-46" fill="#E2E2E2"></path>
                <path d="M78.2789,39.3241333 C80.8094,38.3663 81.9609,36.3328 81.0275667,33.8676333 L81.0100667,33.8244667 C80.0849,31.3803 77.8682333,30.5998 75.3377333,31.5576333 L73.6145667,32.2109667 L76.5557333,39.9774667 L78.2789,39.3241333 Z M67.9609,30.0608 L73.8514,27.8289667 C79.3055667,25.7651333 83.6584,27.7088 85.3279,32.1153 L85.3442333,32.1584667 C87.0137333,36.5661333 85.0455667,41.0519667 79.5470667,43.1344667 L73.7440667,45.3324667 L67.9609,30.0608 Z" id="Fill-48" fill="#E2E2E2"></path>
                <path d="M89.35535,32.3344 L88.4056833,23.2122333 L92.97785,22.7350667 L93.91935,31.7662333 C94.1631833,34.1089 95.46285,35.0994 97.2746833,34.9127333 C99.0841833,34.7237333 100.15635,33.5314 99.9195167,31.2575667 L98.9675167,22.1097333 L103.539683,21.6349 L104.480017,30.6415667 C105.026017,35.8869 102.27035,38.4967333 97.65035,38.9785667 C93.0315167,39.4604 89.8850167,37.4175667 89.35535,32.3344" id="Fill-50" fill="#E2E2E2"></path>
                <path d="M122.968883,30.6573167 C124.309383,30.9734833 125.166883,30.6969833 125.387383,29.76715 L125.396717,29.72165 C125.603217,28.8583167 125.03855,28.1979833 123.72255,27.8853167 L120.860717,27.2074833 L120.199217,30.0004833 L122.968883,30.6573167 Z M122.180217,36.8254833 C123.520717,37.1428167 124.41555,36.8033167 124.63605,35.8723167 L124.64655,35.8268167 C124.851883,34.9634833 124.305883,34.2354833 122.83005,33.88665 L119.467717,33.0898167 L118.77355,36.01815 L122.180217,36.8254833 Z M117.407383,22.6493167 L125.56005,24.5789833 C127.559717,25.05265 128.847717,25.88565 129.558217,27.03715 C130.04355,27.8234833 130.231383,28.75565 129.97355,29.8464833 L129.961883,29.8919833 C129.52555,31.7294833 128.22355,32.5729833 126.670717,32.8529833 C128.449883,33.94615 129.418217,35.32515 128.907217,37.4834833 L128.896717,37.5289833 C128.25155,40.2554833 125.63355,41.3848167 121.840717,40.48765 L113.643717,38.5463167 L117.407383,22.6493167 Z" id="Fill-52" fill="#FFFFFF"></path>
                <polygon id="Fill-54" fill="#E2E2E2" points="136.860617 28.0995167 148.590283 34.0191833 146.854283 37.45735 139.125117 33.5571833 138.01095 35.7645167 145.01095 39.29835 143.402117 42.4856833 136.402117 38.9530167 135.234283 41.2641833 143.06845 45.2191833 141.333617 48.65735 129.49895 42.6840167"></polygon>
                <polygon id="Fill-56" fill="#E2E2E2" points="153.759083 37.3611 156.94875 40.1261 156.37475 51.0496 162.02725 44.5267667 165.41175 47.4574333 154.718083 59.7996 151.722083 57.2037667 152.315917 45.8649333 146.449917 52.6362667 143.06425 49.7032667"></polygon>
                <path d="M162.80985,56.7638167 L162.84835,56.7369833 C166.774183,54.0454833 171.925017,54.9543167 174.722683,59.0329833 C176.61035,61.78515 176.66985,64.34715 175.83335,66.6758167 L171.73135,65.3574833 C172.166517,63.9294833 172.174683,62.6204833 171.29035,61.33015 C169.996517,59.4448167 167.48935,59.21265 165.527017,60.5589833 L165.488517,60.58465 C163.466683,61.97065 162.800517,64.3809833 164.09435,66.2674833 C165.05685,67.67215 166.279517,68.0513167 167.813683,68.1854833 L167.74135,72.3679833 C165.118683,72.2979833 162.653517,71.46965 160.607183,68.48765 C157.96935,64.63765 158.78835,59.5218167 162.80985,56.7638167" id="Fill-58" fill="#E2E2E2"></path>
                <polygon id="Fill-60" fill="#E2E2E2" points="180.816883 70.0380333 185.468383 82.3183667 181.869217 83.6833667 178.803217 75.5890333 176.490883 76.4652 179.26755 83.7953667 175.929717 85.0600333 173.154217 77.7298667 170.73105 78.6457 173.83905 86.8485333 170.239883 88.2123667 165.545217 75.8212"></polygon>
                <path d="M178.699967,88.4699667 L178.7478,88.4641333 C183.466967,87.8551333 187.6378,91.0098 188.270133,95.9144667 C188.697133,99.2231333 187.5853,101.5308 185.780467,103.222467 L182.729633,100.180967 C183.7668,99.1064667 184.369967,97.9468 184.1693,96.3963 C183.876467,94.1306333 181.7508,92.7808 179.3918,93.0853 L179.343967,93.0911333 C176.916133,93.4038 175.224467,95.2459667 175.516133,97.5128 C175.735467,99.2021333 176.650133,100.0958 177.954467,100.915967 L175.985133,104.602633 C173.682133,103.348467 171.8668,101.4888 171.403633,97.9024667 C170.8063,93.2766333 173.8653,89.0941333 178.699967,88.4699667" id="Fill-62" fill="#E2E2E2"></path>
            </g>
        </g>
    </g>
</svg>