<?xml version="1.0" encoding="UTF-8"?>
<svg width="209px" height="209px" viewBox="0 0 209 209" version="1.1" xmlns="http://www.w3.org/2000/svg" xmlns:xlink="http://www.w3.org/1999/xlink">
    <!-- Generator: Sketch 58 (84663) - https://sketch.com -->
    <title>Group 79</title>
    <desc>Created with Sketch.</desc>
    <defs>
        <path d="M0.115034274,104.475139 C0.115034274,162.05169 46.7902964,208.726952 104.366847,208.726952 L104.366847,208.726952 C161.943819,208.726952 208.619081,162.05169 208.619081,104.475139 L208.619081,104.475139 C208.619081,46.8981673 161.943819,0.222483871 104.366847,0.222483871 L104.366847,0.222483871 C46.7902964,0.222483871 0.115034274,46.8981673 0.115034274,104.475139 L0.115034274,104.475139 Z" id="path-1"></path>
        <path d="M0.115034274,104.475139 C0.115034274,162.05169 46.7902964,208.726952 104.366847,208.726952 L104.366847,208.726952 C161.943819,208.726952 208.619081,162.05169 208.619081,104.475139 L208.619081,104.475139 C208.619081,46.8981673 161.943819,0.222483871 104.366847,0.222483871 L104.366847,0.222483871 C46.7902964,0.222483871 0.115034274,46.8981673 0.115034274,104.475139" id="path-3"></path>
        <path d="M0.115034274,104.475139 C0.115034274,162.05169 46.7902964,208.726952 104.366847,208.726952 L104.366847,208.726952 C161.943819,208.726952 208.619081,162.05169 208.619081,104.475139 L208.619081,104.475139 C208.619081,46.8981673 161.943819,0.222483871 104.366847,0.222483871 L104.366847,0.222483871 C46.7902964,0.222483871 0.115034274,46.8981673 0.115034274,104.475139" id="path-5"></path>
        <path d="M0.115034274,104.475139 C0.115034274,162.05169 46.7902964,208.726952 104.366847,208.726952 L104.366847,208.726952 C161.943819,208.726952 208.619081,162.05169 208.619081,104.475139 L208.619081,104.475139 C208.619081,46.8981673 161.943819,0.222483871 104.366847,0.222483871 L104.366847,0.222483871 C46.7902964,0.222483871 0.115034274,46.8981673 0.115034274,104.475139 L0.115034274,104.475139 Z" id="path-7"></path>
        <path d="M0.115034274,104.475139 C0.115034274,162.05169 46.7902964,208.726952 104.366847,208.726952 L104.366847,208.726952 C161.943819,208.726952 208.619081,162.05169 208.619081,104.475139 L208.619081,104.475139 C208.619081,46.8981673 161.943819,0.222483871 104.366847,0.222483871 L104.366847,0.222483871 C46.7902964,0.222483871 0.115034274,46.8981673 0.115034274,104.475139 L0.115034274,104.475139 Z" id="path-9"></path>
        <path d="M0.115034274,104.475139 C0.115034274,162.05169 46.7902964,208.726952 104.366847,208.726952 L104.366847,208.726952 C161.943819,208.726952 208.619081,162.05169 208.619081,104.475139 L208.619081,104.475139 C208.619081,46.8981673 161.943819,0.222483871 104.366847,0.222483871 L104.366847,0.222483871 C46.7902964,0.222483871 0.115034274,46.8981673 0.115034274,104.475139 L0.115034274,104.475139 Z" id="path-11"></path>
        <path d="M0.115034274,104.475139 C0.115034274,162.05169 46.7902964,208.726952 104.366847,208.726952 L104.366847,208.726952 C161.943819,208.726952 208.619081,162.05169 208.619081,104.475139 L208.619081,104.475139 C208.619081,46.8981673 161.943819,0.222483871 104.366847,0.222483871 L104.366847,0.222483871 C46.7902964,0.222483871 0.115034274,46.8981673 0.115034274,104.475139 L0.115034274,104.475139 Z" id="path-13"></path>
        <path d="M0.115034274,104.475139 C0.115034274,162.05169 46.7902964,208.726952 104.366847,208.726952 L104.366847,208.726952 C161.943819,208.726952 208.619081,162.05169 208.619081,104.475139 L208.619081,104.475139 C208.619081,46.8981673 161.943819,0.222483871 104.366847,0.222483871 L104.366847,0.222483871 C46.7902964,0.222483871 0.115034274,46.8981673 0.115034274,104.475139 L0.115034274,104.475139 Z" id="path-15"></path>
        <path d="M0.115034274,104.475139 C0.115034274,162.05169 46.7902964,208.726952 104.366847,208.726952 L104.366847,208.726952 C161.943819,208.726952 208.619081,162.05169 208.619081,104.475139 L208.619081,104.475139 C208.619081,46.8981673 161.943819,0.222483871 104.366847,0.222483871 L104.366847,0.222483871 C46.7902964,0.222483871 0.115034274,46.8981673 0.115034274,104.475139 L0.115034274,104.475139 Z" id="path-17"></path>
        <path d="M0.115034274,104.475139 C0.115034274,162.05169 46.7902964,208.726952 104.366847,208.726952 L104.366847,208.726952 C161.943819,208.726952 208.619081,162.05169 208.619081,104.475139 L208.619081,104.475139 C208.619081,46.8981673 161.943819,0.222483871 104.366847,0.222483871 L104.366847,0.222483871 C46.7902964,0.222483871 0.115034274,46.8981673 0.115034274,104.475139" id="path-19"></path>
        <path d="M0.115034274,104.475139 C0.115034274,162.05169 46.7902964,208.726952 104.366847,208.726952 L104.366847,208.726952 C161.943819,208.726952 208.619081,162.05169 208.619081,104.475139 L208.619081,104.475139 C208.619081,46.8981673 161.943819,0.222483871 104.366847,0.222483871 L104.366847,0.222483871 C46.7902964,0.222483871 0.115034274,46.8981673 0.115034274,104.475139 L0.115034274,104.475139 Z" id="path-21"></path>
        <path d="M0.115034274,104.475139 C0.115034274,162.05169 46.7902964,208.726952 104.366847,208.726952 L104.366847,208.726952 C161.943819,208.726952 208.619081,162.05169 208.619081,104.475139 L208.619081,104.475139 C208.619081,46.8981673 161.943819,0.222483871 104.366847,0.222483871 L104.366847,0.222483871 C46.7902964,0.222483871 0.115034274,46.8981673 0.115034274,104.475139 L0.115034274,104.475139 Z" id="path-23"></path>
        <path d="M0.115034274,104.475139 C0.115034274,162.05169 46.7902964,208.726952 104.366847,208.726952 L104.366847,208.726952 C161.943819,208.726952 208.619081,162.05169 208.619081,104.475139 L208.619081,104.475139 C208.619081,46.8981673 161.943819,0.222483871 104.366847,0.222483871 L104.366847,0.222483871 C46.7902964,0.222483871 0.115034274,46.8981673 0.115034274,104.475139 L0.115034274,104.475139 Z" id="path-25"></path>
        <path d="M0.115034274,104.475139 C0.115034274,162.05169 46.7902964,208.726952 104.366847,208.726952 L104.366847,208.726952 C161.943819,208.726952 208.619081,162.05169 208.619081,104.475139 L208.619081,104.475139 C208.619081,46.8981673 161.943819,0.222483871 104.366847,0.222483871 L104.366847,0.222483871 C46.7902964,0.222483871 0.115034274,46.8981673 0.115034274,104.475139 L0.115034274,104.475139 Z" id="path-27"></path>
        <path d="M0.115034274,104.475139 C0.115034274,162.05169 46.7902964,208.726952 104.366847,208.726952 L104.366847,208.726952 C161.943819,208.726952 208.619081,162.05169 208.619081,104.475139 L208.619081,104.475139 C208.619081,46.8981673 161.943819,0.222483871 104.366847,0.222483871 L104.366847,0.222483871 C46.7902964,0.222483871 0.115034274,46.8981673 0.115034274,104.475139 L0.115034274,104.475139 Z" id="path-29"></path>
        <path d="M0.115034274,104.475139 C0.115034274,162.05169 46.7902964,208.726952 104.366847,208.726952 L104.366847,208.726952 C161.943819,208.726952 208.619081,162.05169 208.619081,104.475139 L208.619081,104.475139 C208.619081,46.8981673 161.943819,0.222483871 104.366847,0.222483871 L104.366847,0.222483871 C46.7902964,0.222483871 0.115034274,46.8981673 0.115034274,104.475139 L0.115034274,104.475139 Z" id="path-31"></path>
        <path d="M0.115034274,104.475139 C0.115034274,162.05169 46.7902964,208.726952 104.366847,208.726952 L104.366847,208.726952 C161.943819,208.726952 208.619081,162.05169 208.619081,104.475139 L208.619081,104.475139 C208.619081,46.8981673 161.943819,0.222483871 104.366847,0.222483871 L104.366847,0.222483871 C46.7902964,0.222483871 0.115034274,46.8981673 0.115034274,104.475139 L0.115034274,104.475139 Z" id="path-33"></path>
        <path d="M0.115034274,104.475139 C0.115034274,162.05169 46.7902964,208.726952 104.366847,208.726952 L104.366847,208.726952 C161.943819,208.726952 208.619081,162.05169 208.619081,104.475139 L208.619081,104.475139 C208.619081,46.8981673 161.943819,0.222483871 104.366847,0.222483871 L104.366847,0.222483871 C46.7902964,0.222483871 0.115034274,46.8981673 0.115034274,104.475139 L0.115034274,104.475139 Z" id="path-35"></path>
        <path d="M0.115034274,104.475139 C0.115034274,162.05169 46.7902964,208.726952 104.366847,208.726952 L104.366847,208.726952 C161.943819,208.726952 208.619081,162.05169 208.619081,104.475139 L208.619081,104.475139 C208.619081,46.8981673 161.943819,0.222483871 104.366847,0.222483871 L104.366847,0.222483871 C46.7902964,0.222483871 0.115034274,46.8981673 0.115034274,104.475139 L0.115034274,104.475139 Z" id="path-37"></path>
        <path d="M0.115034274,104.475139 C0.115034274,162.05169 46.7902964,208.726952 104.366847,208.726952 L104.366847,208.726952 C161.943819,208.726952 208.619081,162.05169 208.619081,104.475139 L208.619081,104.475139 C208.619081,46.8981673 161.943819,0.222483871 104.366847,0.222483871 L104.366847,0.222483871 C46.7902964,0.222483871 0.115034274,46.8981673 0.115034274,104.475139 L0.115034274,104.475139 Z" id="path-39"></path>
        <path d="M0.115034274,104.475139 C0.115034274,162.05169 46.7902964,208.726952 104.366847,208.726952 L104.366847,208.726952 C161.943819,208.726952 208.619081,162.05169 208.619081,104.475139 L208.619081,104.475139 C208.619081,46.8981673 161.943819,0.222483871 104.366847,0.222483871 L104.366847,0.222483871 C46.7902964,0.222483871 0.115034274,46.8981673 0.115034274,104.475139 L0.115034274,104.475139 Z" id="path-41"></path>
        <path d="M0.115034274,104.475139 C0.115034274,162.05169 46.7902964,208.726952 104.366847,208.726952 L104.366847,208.726952 C161.943819,208.726952 208.619081,162.05169 208.619081,104.475139 L208.619081,104.475139 C208.619081,46.8981673 161.943819,0.222483871 104.366847,0.222483871 L104.366847,0.222483871 C46.7902964,0.222483871 0.115034274,46.8981673 0.115034274,104.475139 L0.115034274,104.475139 Z" id="path-43"></path>
        <path d="M0.115034274,104.475139 C0.115034274,162.05169 46.7902964,208.726952 104.366847,208.726952 L104.366847,208.726952 C161.943819,208.726952 208.619081,162.05169 208.619081,104.475139 L208.619081,104.475139 C208.619081,46.8981673 161.943819,0.222483871 104.366847,0.222483871 L104.366847,0.222483871 C46.7902964,0.222483871 0.115034274,46.8981673 0.115034274,104.475139 L0.115034274,104.475139 Z" id="path-45"></path>
        <path d="M0.115034274,104.475139 C0.115034274,162.05169 46.7902964,208.726952 104.366847,208.726952 L104.366847,208.726952 C161.943819,208.726952 208.619081,162.05169 208.619081,104.475139 L208.619081,104.475139 C208.619081,46.8981673 161.943819,0.222483871 104.366847,0.222483871 L104.366847,0.222483871 C46.7902964,0.222483871 0.115034274,46.8981673 0.115034274,104.475139 L0.115034274,104.475139 Z" id="path-47"></path>
        <path d="M0.115034274,104.475139 C0.115034274,162.05169 46.7902964,208.726952 104.366847,208.726952 L104.366847,208.726952 C161.943819,208.726952 208.619081,162.05169 208.619081,104.475139 L208.619081,104.475139 C208.619081,46.8981673 161.943819,0.222483871 104.366847,0.222483871 L104.366847,0.222483871 C46.7902964,0.222483871 0.115034274,46.8981673 0.115034274,104.475139 L0.115034274,104.475139 Z" id="path-49"></path>
        <path d="M0.115034274,104.475139 C0.115034274,162.05169 46.7902964,208.726952 104.366847,208.726952 L104.366847,208.726952 C161.943819,208.726952 208.619081,162.05169 208.619081,104.475139 L208.619081,104.475139 C208.619081,46.8981673 161.943819,0.222483871 104.366847,0.222483871 L104.366847,0.222483871 C46.7902964,0.222483871 0.115034274,46.8981673 0.115034274,104.475139 L0.115034274,104.475139 Z" id="path-51"></path>
    </defs>
    <g id="Page-1" stroke="none" stroke-width="1" fill="none" fill-rule="evenodd">
        <g id="CrossVanBencec" transform="translate(-120.000000, -235.000000)">
            <g id="Group" transform="translate(110.000000, 235.000000)">
                <g id="Stacked-Group" transform="translate(10.000000, 0.000000)">
                    <g id="Group-79" transform="translate(0.000000, 0.000000)">
                        <g id="Group-3" transform="translate(0.000000, 0.043478)">
                            <mask id="mask-2" fill="white">
                                <use xlink:href="#path-1"></use>
                            </mask>
                            <g id="Clip-2"></g>
                            <path d="M50.7840504,152.847389 L251.653698,62.2517877 C236.693764,-1.89857117 179.152188,-49.6870954 110.445544,-49.6870954 C30.3656774,-49.6870954 -34.5524194,15.2301587 -34.5524194,95.310447 C-34.5524194,122.788048 -26.9079073,148.4803 -13.6313508,170.377685 L-13.4177157,133.339177 L50.7840504,152.847389 Z" id="Fill-1" fill="#DAD2BF" mask="url(#mask-2)"></path>
                        </g>
                        <g id="Group-6" transform="translate(0.000000, 0.043478)">
                            <mask id="mask-4" fill="white">
                                <use xlink:href="#path-3"></use>
                            </mask>
                            <g id="Clip-5"></g>
                            <path d="M87.7470067,97.9975718 L87.7107687,97.9832452 C87.5590752,98.2777835 87.4398272,98.5824347 87.3365913,98.891721 C87.4499401,98.5849629 87.5885712,98.2870536 87.7470067,97.9975718" id="Fill-4" fill="#0D1426" mask="url(#mask-4)"></path>
                        </g>
                        <g id="Group-9" transform="translate(0.000000, 0.043478)">
                            <mask id="mask-6" fill="white">
                                <use xlink:href="#path-5"></use>
                            </mask>
                            <g id="Clip-8"></g>
                            <path d="M140.480909,112.685468 C140.553806,113.305726 140.584988,113.897331 140.574453,114.455226 L141.184599,114.194819 C141.076728,113.980341 140.964643,113.768813 140.86225,113.550964 C140.727832,113.264432 140.604792,112.97495 140.480909,112.685468" id="Fill-7" fill="#AE3034" mask="url(#mask-6)"></path>
                        </g>
                        <g id="Group-12" transform="translate(0.000000, 0.043478)">
                            <mask id="mask-8" fill="white">
                                <use xlink:href="#path-7"></use>
                            </mask>
                            <g id="Clip-11"></g>
                            <path d="M73.9154204,101.528998 C71.7310333,101.195272 70.7901119,99.5283282 70.637997,98.0788121 C70.4917812,96.696294 70.9999546,94.9758363 72.8080575,94.1170823 L72.8206986,94.1491065 L80.9607429,90.4427274 L81.1908115,92.9768524 L81.1790131,92.9823302 L81.8258175,100.935707 C78.9575454,101.693332 76.3104929,101.894326 73.9154204,101.528998 L73.9154204,101.528998 Z M278.874051,227.71949 L277.865289,50.4297617 L251.653908,62.2517456 L168.069499,99.9492778 C167.057787,98.2802274 164.980007,97.5681105 163.147465,98.2810702 L148.415493,87.1707819 L144.735239,84.3952113 L129.211932,72.6878403 L128.862616,70.5628665 L128.469898,70.747427 L126.790314,60.1684875 C128.515828,58.9338706 130.957251,56.5855702 132.485564,52.5159694 C132.811283,51.6471024 132.030483,50.7727577 131.142654,51.0432778 C128.302614,51.9096165 113.550416,61.6133685 113.550416,61.6133685 L114.097356,63.0797395 L120.450787,62.6583685 L124.517439,61.4115319 L126.170898,71.8286649 L112.877066,78.0788605 C114.39063,79.4752839 116.232864,80.3327738 116.232864,80.3327738 C116.232864,80.3327738 116.418689,80.3610056 117.165358,80.417048 L125.820739,76.3474472 L126.685392,81.607421 C127.095807,81.7511085 127.464507,81.9019593 127.793176,82.0532315 C129.493408,82.8374028 130.147797,83.6418 130.147797,83.6418 L130.576332,84.0201911 L131.160773,84.5372133 L129.811965,76.334806 L143.103691,86.5243988 L146.756134,89.3239875 L160.993838,100.23876 C160.796215,100.634427 160.663061,101.05959 160.602384,101.49908 L155.813082,103.36449 C156.059162,103.949352 156.284174,104.554863 156.494017,105.170485 L149.804753,108.187502 C149.390967,107.49856 148.958219,106.836165 148.514936,106.207901 L143.7151,108.078367 C143.950646,108.91226 144.235493,109.736883 144.567533,110.549286 L90.2553437,135.044844 C89.8377651,134.255617 89.1909607,133.65727 88.4337571,133.299947 L86.9657006,112.96332 L86.6332389,108.358157 L85.8301058,97.238177 L87.7106845,97.9831609 L87.7469224,97.9974875 C87.9192631,97.6818806 88.115622,97.3768081 88.3406341,97.0885903 L89.183376,96.0077738 L94.4138538,98.2713786 L93.8715494,99.9227315 L93.8403679,100.4111 L99.8950474,102.809123 L125.356809,112.894215 L125.989709,112.218336 L124.489628,110.787782 L123.680596,109.270846 L122.179251,107.396167 L106.029787,100.999334 L98.1177046,97.8660198 L88.3140877,93.9826649 L104.948549,86.161177 L105.725557,84.3277919 L104.148366,82.1825923 L84.7509748,91.3027456 L84.0257954,89.0471468 L83.2070716,86.6078302 L76.5675292,89.6311669 L74.6616683,88.9936327 L71.7820192,90.3045177 L71.7719062,90.2783927 C68.3684929,91.5627315 66.3374849,94.8599593 66.7184042,98.4913343 C67.096374,102.093213 69.7493256,104.87974 73.3204446,105.424151 C76.0534567,105.841308 79.0068458,105.668125 82.1498518,104.915135 L82.4523962,108.630363 L82.8257308,113.216143 L84.4850897,133.609233 C82.9668901,134.635272 82.3293558,136.585798 82.9854304,138.323953 L59.307753,149.002758 L59.307753,155.437092 L204.005279,199.403782 L204.005279,227.71949 L278.874051,227.71949 Z" id="Fill-10" fill="#AE3034" mask="url(#mask-8)"></path>
                        </g>
                        <g id="Group-15" transform="translate(0.000000, 0.043478)">
                            <mask id="mask-10" fill="white">
                                <use xlink:href="#path-9"></use>
                            </mask>
                            <g id="Clip-14"></g>
                            <path d="M162.566689,180.667732 L162.566689,186.812585 L121.153086,174.229184 C123.169768,172.676853 125.425367,170.688404 125.64153,169.414599 C126.038883,167.068406 125.840417,163.687747 125.840417,163.687747 L128.743242,158.637194 L123.493802,152.98998 L122.738284,153.148837 L117.568483,147.82018 C117.568483,147.82018 115.102621,144.121807 115.301508,142.053297 L115.307407,141.991777 C115.482697,140.06569 114.845163,138.164886 113.613074,136.684609 C113.532171,136.586851 113.455903,136.485301 113.369522,136.391335 L111.037233,133.859739 C109.445715,132.131696 107.493504,130.774882 105.319651,129.884103 L104.558233,129.506555 L103.556213,129.009337 L105.565731,128.790646 L114.061834,127.864472 L123.670356,126.817366 L126.494385,127.532853 L138.390108,154.257886 C139.443957,156.371904 141.678066,157.631382 144.032266,157.439236 L162.697314,180.541743 L162.566689,180.667732 Z M116.892183,168.539833 C116.892183,168.539833 116.123181,170.682926 115.22524,172.427823 L82.2757153,162.416049 C83.6072476,162.616622 84.9459431,162.722807 86.283796,162.722807 C90.2261427,162.722807 94.1541629,161.853519 97.827675,160.125898 C103.171502,157.614105 107.458951,153.530599 110.196598,148.418105 C115.348701,153.786372 120.232812,158.87569 120.232812,158.87569 L116.892183,168.539833 Z M138.566242,97.999805 C138.139814,100.830997 138.175209,103.695055 138.653465,106.504757 C135.825223,99.3279663 133.181121,96.0779321 133.181121,96.0779321 L138.566242,97.999805 Z M59.3076266,155.436882 L59.3076266,138.987823 C59.6657919,141.761708 60.4516488,144.493456 61.6761528,147.097529 C64.3906246,152.86989 68.9389028,157.409319 74.6358383,160.094716 L59.3076266,155.436882 Z M142.964933,99.9402183 C144.099264,100.970892 146.401635,103.216799 148.51481,106.208111 C149.349546,107.389636 150.151836,108.687037 150.842885,110.071241 C151.484633,111.35895 152.030729,112.719557 152.408699,114.134942 C153.147363,116.583107 153.248913,117.37697 153.248913,117.37697 L150.648633,119.039279 C148.520709,117.192831 146.746316,114.949031 145.419419,112.387095 C145.283738,112.125424 145.148899,111.86291 145.022909,111.594497 C144.484397,110.448789 144.052492,109.272743 143.715395,108.078156 C142.964933,105.421833 142.711268,102.671545 142.964933,99.9402183 L142.964933,99.9402183 Z M171.020655,189.381684 C171.20058,187.374694 171.069534,185.157019 171.069534,185.157019 L173.82825,180.445249 L168.84006,175.176426 L168.122044,175.324327 L167.786211,175.647097 L167.535496,175.613809 C167.535496,175.613809 162.325665,169.211077 161.888282,168.216642 C161.450899,167.222628 161.092733,162.012797 161.172373,160.540948 C161.185856,160.29571 161.168159,160.00665 161.129393,159.694835 C160.86435,157.555114 159.750667,155.611329 158.106899,154.217013 L154.146854,151.691736 C152.298721,150.513583 150.13751,149.9224 147.947223,149.99614 L146.577346,150.042069 C146.577346,150.042069 147.253225,139.702468 146.696594,136.719583 C146.139963,133.73712 141.327907,122.959714 141.327907,122.959714 L138.382945,120.798081 C139.400135,119.492674 140.516346,117.400567 140.574496,114.455184 C140.58503,113.897289 140.553848,113.305684 140.480951,112.685426 C140.604834,112.974908 140.727875,113.26439 140.862292,113.550922 C140.964685,113.768771 141.07677,113.980299 141.184641,114.194777 C142.953556,117.717017 145.414784,120.756366 148.411153,123.164079 L148.178556,124.610646 L149.760383,126.149071 L151.691104,125.421364 C153.125451,126.25947 154.643229,126.977065 156.239383,127.552236 C159.248814,128.636845 162.36401,129.1762 165.469935,129.1762 C169.412282,129.1762 173.339881,128.306491 177.013814,126.579291 C183.581723,123.491906 188.554744,118.030517 191.01555,111.2022 L191.015971,111.200515 C193.476356,104.37262 193.12999,96.9960994 190.041762,90.4281901 C186.953534,83.8607022 181.492566,78.8876821 174.664671,76.4264542 C171.655661,75.3426881 168.540887,74.8033333 165.434961,74.8033333 L165.43454,74.8033333 C161.491772,74.8033333 157.564594,75.6722002 153.890661,77.3998212 C150.314907,79.0810913 147.217409,81.4698433 144.735534,84.3950006 L148.415367,87.1705712 C150.447639,84.8323837 152.95901,82.9185167 155.847086,81.5608595 C158.894441,80.1273554 162.120457,79.4009119 165.43454,79.4009119 L165.434961,79.4009119 C168.036506,79.4009119 170.617403,79.8555712 173.10602,80.7522486 C178.778516,82.7963192 183.315417,86.9278615 185.881145,92.3846155 C188.446873,97.8409482 188.734248,103.969368 186.690177,109.641442 L186.677115,109.679366 C184.627566,115.335428 180.502766,119.858845 175.057389,122.418674 C172.009612,123.851335 168.783596,124.5782 165.469935,124.5782 C162.867969,124.5782 160.287072,124.123541 157.798877,123.227285 C157.654346,123.175456 157.514451,123.116043 157.371606,123.061265 L157.226655,121.43098 L159.001891,119.515007 C159.001891,119.515007 158.777721,113.328017 157.165556,107.371938 C156.793064,105.997426 156.347675,104.635976 155.813377,103.3647 C155.413074,102.412823 154.963893,101.511511 154.458669,100.694894 C150.354937,94.0637788 147.667433,92.7271901 147.667433,92.7271901 L145.348629,91.7285409 C145.771685,90.8950692 146.238564,90.0910933 146.756429,89.3241982 L143.103985,86.5241881 C142.364901,87.5961558 141.701663,88.72543 141.118485,89.9061115 L133.545185,86.6434361 L131.161068,84.5370026 L130.576205,84.0204018 L130.147671,83.6415893 C130.147671,83.6415893 129.493703,82.8371921 127.793471,82.0534421 C127.464381,81.9017486 127.095681,81.7513192 126.685687,81.6072103 C125.090798,81.0476296 122.86301,80.589178 119.827032,80.5845429 C118.543115,80.5133313 117.707536,80.4581317 117.165231,80.4172587 C116.418562,80.360795 116.232737,80.3329845 116.232737,80.3329845 C116.232737,80.3329845 114.390504,79.4754946 112.876939,78.0786498 C112.467367,77.70068 112.080127,77.2847869 111.761992,76.8334986 C111.264774,76.1281236 110.940318,75.5997244 110.726683,75.2048998 L110.910401,75.3692345 L114.820302,74.0381236 C114.820302,74.0381236 114.89952,67.1179482 111.175022,64.4001054 L111.110973,64.4026337 C110.911244,64.2526256 110.699294,64.1034603 110.464169,63.9576659 C105.857742,61.1054058 101.248365,62.4040712 99.1676347,64.8669845 L99.1815399,65.0169925 L99.9147254,65.5352788 L100.524871,66.0809542 L97.8103988,69.1451639 L98.0484734,69.7746921 L95.8143645,72.5102325 L97.0523524,73.1439744 L96.4767597,74.2429099 C96.4767597,74.2429099 97.1576952,74.6432123 97.308546,75.1109341 C97.1939331,75.1303171 96.1493544,74.9339583 96.1493544,74.9339583 L96.2905137,76.438674 L95.0167093,77.3745389 L96.3216952,79.1489321 L102.624983,80.1105006 L104.14824,82.1823817 L105.725431,84.3275813 L104.948844,86.1613877 L104.162145,88.0183696 L105.73133,91.2700893 C105.223157,92.17393 105.040703,93.2244079 105.214729,94.2474966 L105.266979,94.3549462 L98.1175782,97.8658091 L106.029661,100.999545 L106.137953,100.967521 C107.549125,100.7029 108.877707,100.109609 110.017094,99.2356861 L110.741431,98.6803192 L111.621675,99.869428 C111.621675,99.869428 115.785663,103.432962 118.063173,104.299301 C120.340262,105.16564 120.535778,105.343458 120.535778,105.343458 L122.179125,107.395956 L123.680469,109.271057 L124.489923,110.787571 L125.989582,112.218547 L125.356683,112.894005 L124.346657,113.971872 L113.847778,114.409676 C113.847778,114.409676 110.165838,115.374616 106.111828,116.967819 C103.209846,113.859366 99.5953262,111.45713 95.4785319,109.973482 C92.5938262,108.93396 89.6113625,108.400926 86.6331125,108.358368 L86.9655742,112.963109 C89.3239875,113.038956 91.6600681,113.484767 93.9194593,114.298855 C96.8239694,115.345962 99.4276206,116.942537 101.624227,118.980708 C100.254772,119.692404 98.9902375,120.466462 97.9797899,121.2894 C95.4810601,123.324622 94.6876185,125.452545 94.0593544,126.149071 C93.6417758,126.612579 93.5326407,127.274132 93.7694512,127.850989 L95.592302,132.28971 C96.147669,133.642311 96.9891468,134.861337 98.0872395,135.827541 C98.1858403,135.914765 98.289919,136.014208 98.3998968,136.127978 C98.8225319,136.567047 102.549558,140.450402 106.807933,144.887017 C104.597,149.764807 100.771373,153.661224 95.871671,155.965281 C92.8234734,157.397942 89.5978786,158.124807 86.283796,158.124807 C83.6818302,158.124807 81.1005117,157.670148 78.6127375,156.773892 C72.9402415,154.728978 68.402919,150.598279 65.8371911,145.141103 C63.2748343,139.691934 62.984931,133.571942 65.0209956,127.905345 L65.0209956,127.904924 L65.0290016,127.882591 C67.0730722,122.210517 71.2041931,117.673194 76.6609472,115.107466 C78.6481327,114.172866 80.7120077,113.544601 82.8256044,113.216353 L82.4522698,108.630152 C79.8031105,109.008964 77.1952456,109.775859 74.7045218,110.946849 C68.1361911,114.035077 63.1644351,119.495624 60.7036286,126.32394 L60.7027859,126.325626 C60.0184794,128.225166 59.5591851,130.167686 59.3076266,132.122847 L59.3076266,51.4682304 L72.4173202,51.4682304 L75.6201609,51.4682304 L83.8672335,51.4682304 L91.363423,51.4682304 L90.0693927,49.9727849 L82.5732032,49.9727849 L79.693554,46.6452183 L84.0804472,46.6452183 L82.7864169,45.1501942 L75.6201609,45.1501942 L75.6201609,41.4842667 L59.3076266,41.4842667 L59.3076266,4.74619617 L49.3245056,9.9345369 L49.3245056,41.4842667 L19.6776871,41.4842667 L13.0094915,51.4682304 L49.3245056,51.4682304 L49.3245056,152.403853 L-13.4176315,133.339345 L-13.6312665,170.377432 L-13.6978431,181.929739 L-13.9612,227.719279 L-14.0159782,237.231728 L80.6239411,237.231728 L140.266895,237.231728 L204.005574,237.231728 L204.005574,227.719279 L204.005574,199.403993 L171.020655,189.381684 Z" id="Fill-13" fill="#0D1426" mask="url(#mask-10)"></path>
                        </g>
                        <g id="Group-18" transform="translate(0.000000, 0.043478)">
                            <mask id="mask-12" fill="white">
                                <use xlink:href="#path-11"></use>
                            </mask>
                            <g id="Clip-17"></g>
                            <path d="M94.4140224,98.2712101 L89.1835446,96.0080266 L88.3408026,97.0884218 C88.1157905,97.3770609 87.9194317,97.6821335 87.7470909,97.9977403 C87.5886554,98.2868008 87.4500244,98.5847101 87.3366756,98.8918895 C86.8091192,100.317809 86.7728812,101.902585 87.27347,103.382019 L87.4900546,103.287631 C87.5810708,103.506744 87.6809357,103.722908 87.7976554,103.933593 L88.2990869,104.836591 L92.6758671,104.938984 L99.8952159,102.809375 L93.8405365,100.410932 L93.8717179,99.9229843 L94.4140224,98.2712101 Z" id="Fill-16" fill="#0D1426" mask="url(#mask-12)"></path>
                        </g>
                        <g id="Group-21" transform="translate(0.000000, 0.043478)">
                            <mask id="mask-14" fill="white">
                                <use xlink:href="#path-13"></use>
                            </mask>
                            <g id="Clip-20"></g>
                            <polygon id="Fill-19" fill="#AE3034" mask="url(#mask-14)" points="80.3289815 54.6568288 76.8724754 63.6379296 67.2622677 64.1498954 74.7361246 70.2130022 72.2534069 79.5105526 80.3289815 74.2762825 88.4041347 79.5101313 85.9218383 70.2130022 93.3956952 64.1498954 83.7854875 63.6379296"></polygon>
                        </g>
                        <g id="Group-24" transform="translate(0.000000, 0.043478)">
                            <mask id="mask-16" fill="white">
                                <use xlink:href="#path-15"></use>
                            </mask>
                            <g id="Clip-23"></g>
                            <path d="M16.9953659,120.638845 C16.097003,121.849023 15.8193196,123.135468 16.1614728,124.497339 C16.3119022,125.09695 16.5605111,125.624928 16.9064567,126.080851 C17.2528236,126.537196 17.6590252,126.902103 18.1263256,127.175994 C18.593626,127.449464 19.1119123,127.627283 19.68287,127.708186 C20.2534062,127.78951 20.8386905,127.754537 21.43788,127.604107 C22.0505534,127.450307 22.5899083,127.202962 23.0542591,126.861652 C23.5190312,126.520341 23.8953155,126.114561 24.1826905,125.64389 C24.4696442,125.17364 24.6592611,124.659146 24.7502772,124.099986 C24.8421361,123.542091 24.8139042,122.969027 24.6668458,122.383742 C24.3453397,121.103196 23.5114466,120.088113 22.1651663,119.340601 L26.9060111,118.15065 L27.1516704,118.523142 C27.5228982,119.081458 27.827128,119.612807 28.0626744,120.118452 C28.2982208,120.624519 28.4810958,121.136484 28.610878,121.653506 C28.8776058,122.716204 28.9323841,123.785222 28.7752127,124.86014 C28.6184627,125.934635 28.2683034,126.93497 27.725999,127.860722 C27.1836946,128.786474 26.4682067,129.599299 25.5795353,130.30046 C24.6912853,131.0012 23.6547127,131.500525 22.4693962,131.798013 C21.2840796,132.0955 20.1425857,132.147329 19.0432288,131.952656 C17.9447147,131.757982 16.94438,131.37917 16.0426462,130.816218 C15.1413337,130.253267 14.3664325,129.531879 13.7183639,128.652057 C13.0702954,127.772234 12.6105796,126.793811 12.3404808,125.717629 C12.1862591,125.104956 12.099878,124.485962 12.080495,123.860648 C12.0611119,123.235333 12.1057772,122.561561 12.2132268,121.839752 L16.9953659,120.638845 Z" id="Fill-22" fill="#0D1426" mask="url(#mask-16)"></path>
                        </g>
                        <g id="Group-27" transform="translate(0.000000, 0.043478)">
                            <mask id="mask-18" fill="white">
                                <use xlink:href="#path-17"></use>
                            </mask>
                            <g id="Clip-26"></g>
                            <path d="M18.029031,113.699371 L17.9658254,112.921942 C17.8996702,112.110381 17.6809786,111.501079 17.3097508,111.094034 C16.938523,110.687833 16.4379343,110.510014 15.8079847,110.561 C15.1776137,110.612407 14.7128415,110.868601 14.4115613,111.330002 C14.1111238,111.791403 13.9939827,112.427673 14.0597165,113.239655 L14.1225008,114.016663 L18.029031,113.699371 Z M26.0498274,103.936627 L26.4661419,109.060498 L20.6958879,113.482365 L26.7855411,112.987675 L27.1201097,117.103206 L11.2862528,118.390494 L10.766281,111.985655 C10.694648,111.103726 10.761646,110.323347 10.9664323,109.643675 C11.1724827,108.964847 11.481769,108.393889 11.8947125,107.930802 C12.3084988,107.466873 12.7998173,107.102808 13.3703536,106.838187 C13.9408899,106.573567 14.5615694,106.413446 15.233656,106.358667 C16.4383556,106.261331 17.438269,106.472437 18.2338173,106.991988 C19.0306298,107.512381 19.6074867,108.328577 19.9660734,109.440996 L26.0498274,103.936627 Z" id="Fill-25" fill="#0D1426" mask="url(#mask-18)"></path>
                        </g>
                        <g id="Group-30" transform="translate(0.000000, 0.043478)">
                            <mask id="mask-20" fill="white">
                                <use xlink:href="#path-19"></use>
                            </mask>
                            <g id="Clip-29"></g>
                            <path d="M18.4845752,99.7550679 C19.1128393,99.8250155 19.7052869,99.77108 20.2623393,99.5928401 C20.8193917,99.4146002 21.3157667,99.1449228 21.7514643,98.7833865 C22.1875833,98.4222716 22.5436417,97.9848885 22.8196397,97.4716587 C23.0960591,96.9584288 23.2675571,96.4022192 23.334555,95.8017655 C23.4011317,95.2013119 23.3568877,94.6202413 23.1997163,94.0589752 C23.0433877,93.4972877 22.7930933,92.9891143 22.4475692,92.5336123 C22.1028877,92.0785317 21.6785671,91.7022474 21.1746075,91.4060236 C20.6702264,91.1093784 20.1043252,90.9265034 19.4764825,90.8565558 C18.847797,90.7866083 18.2557708,90.8405438 17.6987183,91.0187837 C17.1416659,91.1966022 16.6448696,91.470072 16.2083292,91.8383502 C15.7717889,92.2066284 15.4148877,92.6478038 15.1388897,93.1610337 C14.8624704,93.6742635 14.690551,94.2313159 14.6239744,94.8309268 C14.5569764,95.4313804 14.6020631,96.012451 14.7583917,96.5737171 C14.9151417,97.1354046 15.1662788,97.6406284 15.5113817,98.0885458 C15.8577486,98.5368845 16.2824905,98.9093764 16.7864502,99.2051788 C17.2908313,99.501824 17.8567325,99.6851204 18.4845752,99.7550679 M18.0063192,104.047995 C16.8336438,103.916949 15.7658897,103.579009 14.8017929,103.033334 C13.8381175,102.48808 13.021922,101.789447 12.3536276,100.937856 C11.6849119,100.085844 11.1982284,99.1023643 10.891049,97.9869954 C10.5842909,96.8720478 10.502545,95.672826 10.6453897,94.3880659 C10.7869704,93.1176325 11.1303877,91.9685538 11.6760631,90.9412514 C12.2217385,89.9143704 12.914051,89.0547736 13.7542647,88.3641466 C14.5948998,87.6730982 15.54467,87.1678744 16.6052607,86.8476325 C17.66543,86.5278119 18.7816417,86.4334248 19.9543171,86.5632071 C21.1269925,86.6942534 22.1951679,87.0330357 23.1588433,87.5778683 C24.1229401,88.1235438 24.9382929,88.8255478 25.6057446,89.6847232 C26.2731962,90.5430558 26.760301,91.5332776 27.0662163,92.6558099 C27.3721317,93.7779208 27.454299,94.9746143 27.3127183,96.2450478 C27.1694522,97.5293865 26.8260349,98.6809933 26.2812022,99.7015538 C25.7367909,100.721693 25.0444784,101.574126 24.2051075,102.258011 C23.3657365,102.941897 22.4159663,103.443749 21.3553756,103.76357 C20.2956276,104.083812 19.1789946,104.178199 18.0063192,104.047995" id="Fill-28" fill="#0D1426" mask="url(#mask-20)"></path>
                        </g>
                        <g id="Group-33" transform="translate(0.000000, 0.043478)">
                            <mask id="mask-22" fill="white">
                                <use xlink:href="#path-21"></use>
                            </mask>
                            <g id="Clip-32"></g>
                            <path d="M19.6713244,74.8040496 C19.1888546,75.1251343 18.7978224,75.4740294 18.4965421,75.8511565 C18.1952619,76.2282835 17.9820482,76.6176302 17.856901,77.0200395 C17.6984655,77.529477 17.6900381,77.9828722 17.8316187,78.3793823 C17.972778,78.7767351 18.2382417,79.0354569 18.6267458,79.1568117 C18.8951591,79.2402431 19.1416611,79.2284448 19.3658304,79.1214165 C19.5904212,79.0143883 19.8070058,78.8508964 20.0151631,78.6288339 C20.2241631,78.4067714 20.4268425,78.1463641 20.62278,77.8467694 C20.8187175,77.5471746 21.0205542,77.253479 21.2278687,76.9652613 C22.0571268,75.8111262 22.9238869,75.0471806 23.8264635,74.6730032 C24.7298829,74.2996685 25.758028,74.2920839 26.9117417,74.6506706 C27.6895925,74.8921161 28.3532518,75.241854 28.9022982,75.6994629 C29.4513446,76.1574931 29.8722942,76.7073823 30.165147,77.349973 C30.4584212,77.991721 30.6151712,78.7177431 30.6358183,79.5255113 C30.6564655,80.3337008 30.5233123,81.2004609 30.2355159,82.1257915 C29.6388546,84.0442935 28.5167438,85.6442391 26.8679192,86.9260496 L24.2145462,84.2473944 C24.9211853,83.8197028 25.4917216,83.3574589 25.9257337,82.8602411 C26.3597458,82.362602 26.664397,81.832096 26.8396873,81.2691444 C27.0394171,80.6244468 27.0411026,80.0994185 26.843901,79.6932169 C26.6471208,79.2861726 26.3610099,79.0240798 25.985147,78.9069387 C25.7571853,78.8361484 25.5469212,78.8150798 25.3539333,78.8433117 C25.1613667,78.8715435 24.9654292,78.9579246 24.7665421,79.1016121 C24.5668123,79.2461423 24.3603405,79.4496645 24.1458627,79.7138641 C23.9309635,79.9784851 23.6836187,80.3025194 23.4021429,80.6855456 C23.0831651,81.1456827 22.7502821,81.5898077 22.4030724,82.0187633 C22.0567054,82.4481403 21.663145,82.803356 21.2223909,83.0852532 C20.7816369,83.3675718 20.2797841,83.5504468 19.7172538,83.6326141 C19.1547236,83.7152028 18.4982276,83.6397774 17.7469232,83.4059165 C16.9956187,83.172477 16.3538708,82.8366444 15.8204151,82.3988399 C15.2878022,81.9610355 14.8727518,81.4499125 14.576528,80.8650496 C14.2803042,80.2797653 14.1125986,79.6249548 14.0734111,78.899354 C14.0342236,78.1737532 14.1395663,77.4085435 14.3898607,76.6041464 C14.6237216,75.8528419 14.9713526,75.1006948 15.4335966,74.3468621 C15.8962619,73.5938722 16.4453083,72.9040879 17.0811571,72.2779306 L19.6713244,74.8040496 Z" id="Fill-31" fill="#0D1426" mask="url(#mask-22)"></path>
                        </g>
                        <g id="Group-36" transform="translate(0.000000, 0.043478)">
                            <mask id="mask-24" fill="white">
                                <use xlink:href="#path-23"></use>
                            </mask>
                            <g id="Clip-35"></g>
                            <path d="M25.2923288,62.1834835 C24.7664579,62.4261931 24.3257038,62.7106185 23.9696454,63.0363383 C23.6144296,63.3633222 23.3434881,63.7151669 23.1580849,64.0931367 C22.9225385,64.5726569 22.8441635,65.0188887 22.9229599,65.4330964 C23.0013349,65.8468827 23.2233974,66.1435278 23.5891474,66.3230319 C23.8415486,66.4469149 24.0863651,66.4738827 24.3244397,66.402671 C24.5629357,66.3318806 24.8022744,66.2029411 25.0424558,66.0158524 C25.28348,65.8283423 25.5232401,65.6024875 25.7630002,65.3366024 C26.0031817,65.0715601 26.2475768,64.8115742 26.4966071,64.5587516 C27.4948349,63.5461972 28.4682018,62.9250964 29.4183933,62.6950278 C30.3681635,62.4649593 31.385353,62.6158101 32.4695405,63.1480016 C33.2010405,63.507431 33.8023369,63.954927 34.2742724,64.4917536 C34.7466292,65.0285802 35.0778268,65.6366185 35.2682865,66.3171327 C35.4583248,66.9972254 35.501726,67.7384169 35.397226,68.5398645 C35.2931474,69.3417335 35.0276837,70.1773121 34.6012562,71.0474431 C33.7159558,72.8500681 32.3599841,74.2582899 30.5333409,75.270423 L28.3249357,72.2150621 C29.0893026,71.9015621 29.7243087,71.5324411 30.2299538,71.1076992 C30.7351776,70.6838 31.1182038,70.2063867 31.3777683,69.6767234 C31.6744135,69.0716347 31.7574236,68.5525056 31.6251131,68.120179 C31.4936454,67.6878524 31.2513571,67.3848867 30.8982482,67.2117032 C30.6837704,67.1063605 30.4794054,67.0532677 30.2847321,67.0511609 C30.0896373,67.0494754 29.8827442,67.104675 29.6636312,67.2154956 C29.4445183,67.3280016 29.208972,67.4969714 28.955728,67.7253544 C28.7033268,67.9528948 28.4087885,68.2352133 28.0721131,68.5702032 C27.6852946,68.9755621 27.2875204,69.3632234 26.8792119,69.7331871 C26.4704821,70.1039935 26.0263571,70.3943181 25.5472583,70.605425 C25.0685808,70.8161105 24.5452381,70.9193464 23.9763873,70.9142899 C23.4075365,70.9088121 22.770845,70.732679 22.0642058,70.3863121 C21.3584095,70.0399452 20.7756534,69.609304 20.3163591,69.0939673 C19.8574861,68.5794734 19.5262885,68.0106226 19.3240304,67.3869935 C19.121351,66.7633645 19.0568812,66.0900137 19.1297784,65.3669411 C19.203097,64.6442899 19.4251595,63.9043625 19.7968087,63.1475802 C20.1427542,62.4417839 20.6028913,61.752421 21.1759558,61.0790702 C21.748599,60.4057194 22.3975103,59.8090581 23.1222683,59.2882435 L25.2923288,62.1834835 Z" id="Fill-34" fill="#0D1426" mask="url(#mask-24)"></path>
                        </g>
                        <g id="Group-39" transform="translate(0.000000, 0.043478)">
                            <mask id="mask-26" fill="white">
                                <use xlink:href="#path-25"></use>
                            </mask>
                            <g id="Clip-38"></g>
                            <polygon id="Fill-37" fill="#AE3034" mask="url(#mask-26)" points="68.2565347 19.5382133 74.7254218 26.63705 74.8973411 17.0268423 78.7718472 15.5613141 78.1735004 31.4676468 75.3359883 32.5400359 64.3816073 21.0037415"></polygon>
                        </g>
                        <g id="Group-42" transform="translate(0.000000, 0.043478)">
                            <mask id="mask-28" fill="white">
                                <use xlink:href="#path-27"></use>
                            </mask>
                            <g id="Clip-41"></g>
                            <path d="M90.8402067,22.6025915 L88.269001,18.1128839 L87.473874,23.2249565 L90.8402067,22.6025915 Z M92.3609345,25.2686056 L87.0061522,26.2588274 L86.6087994,28.923156 L82.611253,29.6622407 L85.4340171,14.2257367 L89.5267933,13.4689544 L97.6824284,26.8757145 L93.6853034,27.6147992 L92.3609345,25.2686056 Z" id="Fill-40" fill="#AE3034" mask="url(#mask-28)"></path>
                        </g>
                        <g id="Group-45" transform="translate(0.000000, 0.043478)">
                            <mask id="mask-30" fill="white">
                                <use xlink:href="#path-29"></use>
                            </mask>
                            <g id="Clip-44"></g>
                            <polygon id="Fill-43" fill="#AE3034" mask="url(#mask-30)" points="98.9137165 26.8068625 99.2411218 12.1452597 103.052422 12.2299552 109.891694 21.351794 110.091424 12.3871266 113.883763 12.4722435 113.555936 27.1338464 109.764019 27.0495722 102.92559 17.9273121 102.725017 26.8919794"></polygon>
                        </g>
                        <g id="Group-48" transform="translate(0.000000, 0.043478)">
                            <mask id="mask-32" fill="white">
                                <use xlink:href="#path-31"></use>
                            </mask>
                            <g id="Clip-47"></g>
                            <path d="M128.854526,21.5323093 L129.523241,21.7408879 C130.661786,22.0952609 131.372639,21.8209484 131.653693,20.9171077 C131.935169,20.0136883 131.506213,19.3837387 130.367247,19.0297871 L129.698953,18.8207871 L128.854526,21.5323093 Z M127.08561,27.2153395 L127.884108,27.463527 C128.800169,27.7492165 129.493324,27.836019 129.962731,27.7239343 C130.431717,27.6126923 130.747324,27.2962427 130.909552,26.776271 C131.071358,26.2558778 130.990486,25.8168093 130.667685,25.4582226 C130.344493,25.1000573 129.725078,24.7777085 128.809439,24.4928617 L128.01052,24.2442528 L127.08561,27.2153395 Z M126.925489,14.9024585 L132.348534,16.5904706 C133.636243,16.9911944 134.517751,17.6055532 134.993901,18.4327044 C135.469628,19.2594343 135.526514,20.2559766 135.164556,21.4189605 C134.9446,22.1243355 134.635314,22.6700109 134.237118,23.055144 C133.838923,23.4406984 133.329485,23.7137468 132.709227,23.8734464 C133.19886,24.1346964 133.594106,24.4237569 133.895808,24.7418919 C134.197509,25.0596056 134.416201,25.403023 134.552725,25.7717226 C134.689671,26.1400008 134.749084,26.5255552 134.732651,26.9275431 C134.716217,27.3299524 134.642477,27.7416319 134.511852,28.1617387 C134.306645,28.818656 134.011264,29.3647528 133.624445,29.8012931 C133.237205,30.2374121 132.782124,30.564396 132.260046,30.7818234 C131.737124,30.9992508 131.15184,31.1024867 130.503772,31.0906883 C129.855282,31.0793113 129.16002,30.9571137 128.416721,30.725781 L122.566828,28.9054585 L126.925489,14.9024585 Z" id="Fill-46" fill="#AE3034" mask="url(#mask-32)"></path>
                        </g>
                        <g id="Group-51" transform="translate(0.000000, 0.043478)">
                            <mask id="mask-34" fill="white">
                                <use xlink:href="#path-33"></use>
                            </mask>
                            <g id="Clip-50"></g>
                            <polygon id="Fill-49" fill="#AE3034" mask="url(#mask-34)" points="147.541738 26.4986296 143.471716 24.505545 142.393849 26.7059442 146.236752 28.5886296 144.816732 31.4880833 140.973829 29.6058192 139.861409 31.8765873 143.931853 33.869672 142.511833 36.769547 135.01775 33.0998272 141.468518 19.9290349 148.96218 23.5987546"></polygon>
                        </g>
                        <g id="Group-54" transform="translate(0.000000, 0.043478)">
                            <mask id="mask-36" fill="white">
                                <use xlink:href="#path-35"></use>
                            </mask>
                            <g id="Clip-53"></g>
                            <polygon id="Fill-52" fill="#AE3034" mask="url(#mask-36)" points="144.665797 37.765373 153.355309 25.9513952 156.426261 28.2099435 156.78569 39.6046573 162.098335 32.3819375 165.153696 34.6291089 156.464184 46.4435081 153.409245 44.1963367 153.049394 32.8012016 147.73717 40.0239214"></polygon>
                        </g>
                        <g id="Group-57" transform="translate(0.000000, 0.043478)">
                            <mask id="mask-38" fill="white">
                                <use xlink:href="#path-37"></use>
                            </mask>
                            <g id="Clip-56"></g>
                            <path d="M172.771325,49.6691028 C172.965577,48.2907984 172.623845,47.1252863 171.745708,46.1717238 C171.358889,45.7507742 170.924877,45.4330605 170.44325,45.2156331 C169.961202,44.998627 169.470305,44.8823286 168.970559,44.8663165 C168.471234,44.8494617 167.972331,44.935 167.473849,45.1204032 C166.974946,45.3066492 166.515651,45.5927601 166.095966,45.9791573 C165.66701,46.3744032 165.338762,46.8130504 165.112907,47.294256 C164.88621,47.7758831 164.759799,48.270994 164.734938,48.7795887 C164.708813,49.2877621 164.782553,49.7887722 164.954893,50.2817762 C165.126813,50.7752016 165.402389,51.2269113 165.779516,51.6373266 C166.604982,52.5344254 167.728778,52.9890847 169.150905,53.0017258 L165.830924,56.0579294 L165.467702,55.8640988 C164.91992,55.5754597 164.438714,55.2779718 164.024928,54.9720565 C163.61072,54.6652984 163.236543,54.3307298 162.903238,53.9687722 C162.217668,53.224631 161.701909,52.3814677 161.355543,51.4409677 C161.009176,50.499625 160.851583,49.5342641 160.883186,48.5444637 C160.914789,47.5542419 161.136851,46.5796109 161.547688,45.6193065 C161.959367,44.659002 162.579625,43.7964556 163.409726,43.0325101 C164.239827,42.2685645 165.142825,41.7233105 166.120405,41.3963266 C167.097143,41.0697641 168.075145,40.9349254 169.055254,40.9947601 C170.03452,41.0533306 170.981341,41.2964617 171.895295,41.7245746 C172.808827,42.1522661 173.612381,42.7430282 174.306801,43.4968609 C174.701625,43.9258165 175.045043,44.389746 175.33621,44.8878065 C175.627799,45.3867097 175.888627,45.9526109 176.119539,46.5863528 L172.771325,49.6691028 Z" id="Fill-55" fill="#AE3034" mask="url(#mask-38)"></path>
                        </g>
                        <g id="Group-60" transform="translate(0.000000, 0.043478)">
                            <mask id="mask-40" fill="white">
                                <use xlink:href="#path-39"></use>
                            </mask>
                            <g id="Clip-59"></g>
                            <polygon id="Fill-58" fill="#AE3034" mask="url(#mask-40)" points="180.957214 58.5388774 178.421825 54.7823552 176.390817 56.1534964 178.784626 59.7001758 176.108077 61.5065931 173.71469 57.9599137 171.618791 59.3736133 174.153759 63.1305569 171.478053 64.9373956 166.809684 58.0210125 178.965394 49.8164984 183.633763 56.7324601"></polygon>
                        </g>
                        <g id="Group-63" transform="translate(0.000000, 0.043478)">
                            <mask id="mask-42" fill="white">
                                <use xlink:href="#path-41"></use>
                            </mask>
                            <g id="Clip-62"></g>
                            <path d="M186.070467,72.3889619 C186.665021,71.1311696 186.684826,69.9163571 186.129459,68.7449458 C185.885485,68.2291877 185.565243,67.7964397 185.169154,67.4454377 C184.773487,67.0952784 184.339896,66.8378208 183.867118,66.6743288 C183.395182,66.5112583 182.89333,66.4434175 182.361981,66.4729135 C181.830211,66.5024095 181.307289,66.639355 180.791953,66.8841716 C180.264818,67.1332018 179.821535,67.4547079 179.462106,67.847847 C179.103098,68.239722 178.835527,68.6754196 178.660237,69.1532542 C178.484947,69.6306675 178.40615,70.1312563 178.424269,70.6533349 C178.441967,71.1758349 178.570906,71.6890647 178.810245,72.1930244 C179.331902,73.2940667 180.269453,74.062226 181.623739,74.4966595 L177.546132,76.4294881 L177.25665,76.1362139 C176.819267,75.6979881 176.448039,75.2707179 176.143388,74.8556675 C175.839158,74.4397744 175.581279,74.009976 175.370172,73.5645869 C174.937003,72.6506333 174.694715,71.6928571 174.643307,70.6916796 C174.5919,69.6900808 174.728003,68.7209276 175.052459,67.7850627 C175.376493,66.8496192 175.877924,65.9845446 176.55591,65.1894175 C177.233475,64.3947119 178.082116,63.7554921 179.101412,63.272601 C180.12113,62.7892885 181.145061,62.5364659 182.175735,62.5145546 C183.205566,62.4930647 184.179775,62.6552925 185.097521,63.0025022 C186.015267,63.3497119 186.847053,63.8629417 187.592459,64.5426131 C188.337864,65.2222845 188.930311,66.0249962 189.368959,66.9511696 C189.619253,67.4783046 189.80887,68.0231373 189.939495,68.5860889 C190.069277,69.1481978 190.151023,69.7655063 190.183047,70.4392784 L186.070467,72.3889619 Z" id="Fill-61" fill="#AE3034" mask="url(#mask-42)"></path>
                        </g>
                        <g id="Group-66" transform="translate(0.000000, 0.043478)">
                            <mask id="mask-44" fill="white">
                                <use xlink:href="#path-43"></use>
                            </mask>
                            <g id="Clip-65"></g>
                            <polygon id="Fill-64" fill="#D4C8A9" mask="url(#mask-44)" points="39.016929 172.051033 50.1183685 162.15008 53.0662798 164.506386 50.477798 172.447122 57.6385762 168.161779 60.5860661 170.517664 53.3738806 183.527493 50.4116427 181.159388 54.6948786 173.776547 46.7195903 178.208106 45.5346952 177.260864 48.2382113 168.615174 41.9795883 174.419138"></polygon>
                        </g>
                        <g id="Group-69" transform="translate(0.000000, 0.043478)">
                            <mask id="mask-46" fill="white">
                                <use xlink:href="#path-45"></use>
                            </mask>
                            <g id="Clip-68"></g>
                            <polygon id="Fill-67" fill="#D4C8A9" mask="url(#mask-46)" points="56.8626637 185.68428 65.2694359 173.412694 68.6951819 174.993677 68.0850367 183.32376 74.0107766 177.447321 77.436944 179.028726 73.5510609 193.387363 70.1076173 191.797952 72.4972121 183.603972 65.815954 189.817508 64.4384923 189.181238 64.9921738 180.13946 60.3061073 187.273692"></polygon>
                        </g>
                        <g id="Group-72" transform="translate(0.000000, 0.043478)">
                            <mask id="mask-48" fill="white">
                                <use xlink:href="#path-47"></use>
                            </mask>
                            <g id="Clip-71"></g>
                            <polygon id="Fill-70" fill="#D4C8A9" mask="url(#mask-48)" points="83.7209335 187.781275 80.8674093 180.060073 85.4456048 181.154374 86.4927117 185.304456 89.7583367 182.18589 94.3361109 183.28019 88.0340867 188.812791 91.5314657 197.688549 87.0101552 196.607311 85.2665222 191.270648 80.8054677 195.124085 76.3216593 194.052118"></polygon>
                        </g>
                        <g id="Group-75" transform="translate(0.000000, 0.043478)">
                            <mask id="mask-50" fill="white">
                                <use xlink:href="#path-49"></use>
                            </mask>
                            <g id="Clip-74"></g>
                            <polygon id="Fill-73" fill="#D4C8A9" mask="url(#mask-50)" points="99.6239794 183.367541 98.3611306 197.979 94.5633141 197.650331 95.8257415 183.039293"></polygon>
                        </g>
                        <g id="Group-78" transform="translate(0.000000, 0.043478)">
                            <mask id="mask-52" fill="white">
                                <use xlink:href="#path-51"></use>
                            </mask>
                            <g id="Clip-77"></g>
                            <polygon id="Fill-76" fill="#D4C8A9" mask="url(#mask-52)" points="106.605001 190.339502 101.6994 183.729035 106.400215 183.495174 108.570696 187.184277 110.829666 183.273954 115.530902 183.040093 111.034452 190.119125 116.88266 197.656188 112.239573 197.887521 109.068335 193.25539 105.868023 198.205234 101.263702 198.434881"></polygon>
                        </g>
                    </g>
                </g>
            </g>
        </g>
    </g>
</svg>